<?xml version="1.0" encoding="utf-8"?>
<!-- Generator: Adobe Illustrator 22.1.0, SVG Export Plug-In . SVG Version: 6.00 Build 0)  -->
<svg version="1.1" id="Calque_1" xmlns="http://www.w3.org/2000/svg" xmlns:xlink="http://www.w3.org/1999/xlink" x="0px" y="0px"
	 viewBox="0 0 15.6 15.6" style="enable-background:new 0 0 15.6 15.6;" xml:space="preserve">
<style type="text/css">
	.st0{fill:#818181;}
</style>
<title>Linkedin</title>
<path class="st0" d="M12.6,11.5h-1.9V7.3c0-0.5-0.1-0.8-0.7-0.8c-1,0-1.2,0.8-1.2,0.8v4.2H6.8V4.7h1.9v0.6c0.3-0.2,1-0.6,1.9-0.6
	c0.6,0,1.9,0.4,1.9,2.6V11.5z M5,4.3C4.5,4.3,4,3.9,4,3.4C4,2.9,4.5,2.5,5,2.5c0.5,0,0.9,0.4,0.9,0.9C5.9,3.9,5.5,4.3,5,4.3
	 M5.9,11.5H3.9V4.7h1.9V11.5z M7.8,0C3.5,0,0.1,3.5,0.1,7.7c0,4.3,3.5,7.7,7.7,7.7c4.3,0,7.7-3.5,7.7-7.7C15.5,3.5,12.1,0,7.8,0"/>
</svg>
