<svg id="Calque_1" data-name="Calque 1" xmlns="http://www.w3.org/2000/svg" viewBox="0 0 15.59 15.59"><defs><style>.cls-1{fill:#818181;}</style></defs><title>Twitter</title><path class="cls-1" d="M11.27,6a1.85,1.85,0,0,1,0,.23,5.1,5.1,0,0,1-7.86,4.3,3.11,3.11,0,0,0,.43,0A3.61,3.61,0,0,0,6.08,9.8,1.79,1.79,0,0,1,4.4,8.56l.34,0a1.49,1.49,0,0,0,.47-.07A1.78,1.78,0,0,1,3.77,6.77v0A1.7,1.7,0,0,0,4.59,7a1.8,1.8,0,0,1-.8-1.5A1.83,1.83,0,0,1,4,4.57a5.12,5.12,0,0,0,3.7,1.88A1.84,1.84,0,0,1,7.68,6a1.8,1.8,0,0,1,3.11-1.23,3.51,3.51,0,0,0,1.14-.44,1.87,1.87,0,0,1-.79,1,3.58,3.58,0,0,0,1-.29,3.46,3.46,0,0,1-.9.93M7.8,0a7.8,7.8,0,1,0,7.79,7.8A7.81,7.81,0,0,0,7.8,0"/></svg>