<svg id="Calque_1" data-name="Calque 1" xmlns="http://www.w3.org/2000/svg" viewBox="0 0 15.49 15.49"><defs><style>.cls-1{fill:#818181;}</style></defs><title>Youtube</title><polygon class="cls-1" points="4.07 8.32 4.68 8.32 4.68 11.64 5.26 11.64 5.26 8.32 5.89 8.32 5.89 7.77 4.07 7.77 4.07 8.32"/><path class="cls-1" d="M9,10.92c0,.26-.08.39-.23.39a.38.38,0,0,1-.26-.13V9.42a.41.41,0,0,1,.26-.12c.15,0,.23.13.23.39ZM9,8.83a.7.7,0,0,0-.54.31V7.87H8v3.87h.52v-.28a.72.72,0,0,0,.54.32.42.42,0,0,0,.42-.32,2.62,2.62,0,0,0,.05-.58V9.73a2.56,2.56,0,0,0-.05-.58A.41.41,0,0,0,9,8.83" transform="translate(-0.05 -0.1)"/><path class="cls-1" d="M7,11.06c-.12.17-.23.25-.33.25s-.11,0-.13-.12V8.86H6v2.28a1.51,1.51,0,0,0,0,.43.33.33,0,0,0,.34.21.84.84,0,0,0,.6-.35v.31h.52V8.86H7Z" transform="translate(-0.05 -0.1)"/><path class="cls-1" d="M7.44,6.2c.17,0,.26-.14.26-.41V4.57c0-.27-.09-.4-.26-.4s-.25.13-.25.4V5.79c0,.27.08.41.25.41" transform="translate(-0.05 -0.1)"/><path class="cls-1" d="M12,12a1.08,1.08,0,0,1-.93.85A29,29,0,0,1,7.8,13a29.15,29.15,0,0,1-3.24-.12A1.08,1.08,0,0,1,3.63,12,9.35,9.35,0,0,1,3.48,10a9.31,9.31,0,0,1,.15-2,1.08,1.08,0,0,1,.93-.85A29.15,29.15,0,0,1,7.8,6.94,29,29,0,0,1,11,7.06a1.11,1.11,0,0,1,.94.85,9.31,9.31,0,0,1,.15,2A8.78,8.78,0,0,1,12,12M5.25,2.73l.42,1.54.4-1.54h.59L6,5.06V6.64H5.37V5.06A8.73,8.73,0,0,0,5,3.82L4.64,2.73ZM6.66,4.68A1.15,1.15,0,0,1,6.83,4a.71.71,0,0,1,.61-.3.72.72,0,0,1,.62.3,1.15,1.15,0,0,1,.16.69v1a1.12,1.12,0,0,1-.16.68.72.72,0,0,1-.62.3.71.71,0,0,1-.61-.3,1.11,1.11,0,0,1-.17-.68Zm2-.95h.52V5.87a.88.88,0,0,0,0,.21q0,.12.12.12c.11,0,.22-.08.34-.25V3.73h.52V6.64H9.65V6.32A.85.85,0,0,1,9,6.68a.33.33,0,0,1-.34-.22,1.51,1.51,0,0,1,0-.43ZM7.8.1a7.75,7.75,0,1,0,7.74,7.75A7.75,7.75,0,0,0,7.8.1" transform="translate(-0.05 -0.1)"/><path class="cls-1" d="M11,10h-.52V9.7c0-.27.09-.4.26-.4s.26.13.26.4Zm-.26-1.13a.73.73,0,0,0-.62.29,1.14,1.14,0,0,0-.16.68v1a1.07,1.07,0,0,0,.17.68.75.75,0,0,0,.63.29.73.73,0,0,0,.63-.31.84.84,0,0,0,.12-.31,2.75,2.75,0,0,0,0-.34v-.08h-.53c0,.21,0,.33,0,.36a.23.23,0,0,1-.24.21c-.17,0-.26-.14-.26-.4V10.4h1V9.8a1.14,1.14,0,0,0-.16-.68.72.72,0,0,0-.62-.29" transform="translate(-0.05 -0.1)"/></svg>